<?xml version="1.0" encoding="utf-8"?>
<!-- Generator: Adobe Illustrator 25.2.0, SVG Export Plug-In . SVG Version: 6.00 Build 0)  -->
<svg version="1.1" id="Layer_1" xmlns="http://www.w3.org/2000/svg" xmlns:xlink="http://www.w3.org/1999/xlink" x="0px" y="0px"
	 viewBox="0 0 100 97.53" style="enable-background:new 0 0 100 97.53;" xml:space="preserve">
<style type="text/css">
	.st0{fill-rule:evenodd;clip-rule:evenodd;fill:none;}
</style>
<path class="st0" d="M50,0C22.39,0,0,22.38,0,50c0,22.09,14.33,40.83,34.19,47.44c2.5,0.46,3.42-1.09,3.42-2.41
	c0-1.19-0.05-5.13-0.07-9.31c-13.91,3.02-16.85-5.9-16.85-5.9c-2.27-5.78-5.55-7.32-5.55-7.32c-4.54-3.1,0.34-3.04,0.34-3.04
	c5.02,0.35,7.66,5.15,7.66,5.15c4.46,7.64,11.7,5.43,14.55,4.16c0.45-3.23,1.74-5.44,3.17-6.69C29.77,70.83,18.1,66.55,18.1,47.39
	c0-5.46,1.95-9.92,5.15-13.42c-0.52-1.26-2.23-6.34,0.48-13.23c0,0,4.2-1.34,13.75,5.13c3.99-1.11,8.27-1.66,12.52-1.68
	c4.25,0.02,8.53,0.57,12.53,1.68c9.54-6.47,13.74-5.13,13.74-5.13c2.72,6.89,1.01,11.97,0.49,13.23c3.21,3.5,5.15,7.96,5.15,13.42
	c0,19.2-11.7,23.43-22.83,24.67c1.79,1.55,3.39,4.59,3.39,9.26c0,6.69-0.06,12.07-0.06,13.72c0,1.33,0.9,2.89,3.43,2.4
	C85.69,90.82,100,72.08,100,50C100,22.38,77.61,0,50,0z"/>
</svg>
